<?xml version="1.0" standalone="no"?>
<!DOCTYPE svg PUBLIC "-//W3C//DTD SVG 20010904//EN"
 "http://www.w3.org/TR/2001/REC-SVG-20010904/DTD/svg10.dtd">
<svg version="1.0" xmlns="http://www.w3.org/2000/svg"
 width="512.000000pt" height="512.000000pt" viewBox="0 0 512.000000 512.000000"
 preserveAspectRatio="xMidYMid meet">

<g transform="translate(0.000000,512.000000) scale(0.100000,-0.100000)"
fill="#000000" stroke="none">
<path d="M2465 3870 c-144 -18 -317 -83 -435 -163 -62 -42 -184 -161 -232
-225 -54 -73 -124 -221 -149 -317 -30 -114 -37 -305 -15 -414 39 -192 117
-348 242 -480 175 -186 395 -287 654 -298 191 -8 357 33 520 127 418 243 586
805 369 1242 -173 351 -577 575 -954 528z m435 -200 c6 0 10 -4 10 -10 0 -5
-7 -10 -15 -10 -8 0 -24 -14 -35 -32 l-19 -31 -12 26 c-7 15 -20 29 -31 32
-19 7 -25 25 -8 25 6 0 20 11 32 25 l22 25 23 -25 c13 -14 28 -25 33 -25z
m-273 -131 c37 -14 79 -54 93 -90 12 -29 13 -29 99 -29 94 0 105 4 115 37 10
32 61 71 101 79 49 9 80 -1 122 -39 30 -28 36 -42 40 -83 9 -90 -47 -154 -134
-154 -56 0 -89 16 -114 57 l-21 33 -97 0 -98 0 -11 -37 c-6 -20 -8 -42 -4 -48
4 -7 62 -65 130 -130 116 -112 124 -117 148 -106 38 17 105 13 140 -8 66 -40
84 -153 33 -208 -48 -51 -103 -65 -169 -42 l-32 12 -128 -128 -128 -128 1 -57
c2 -94 -53 -150 -148 -150 -94 0 -149 59 -147 156 l1 51 -125 124 c-106 105
-129 123 -152 121 -89 -12 -130 -7 -157 18 -75 70 -72 182 7 230 39 24 114 27
144 6 19 -14 28 -7 147 112 70 70 129 130 133 134 3 3 0 22 -7 42 l-13 35 -94
3 -95 3 -21 -32 c-28 -43 -66 -63 -119 -63 -50 0 -104 30 -124 70 -20 40 -16
103 10 141 62 94 187 87 238 -14 l21 -39 91 4 c77 4 92 7 101 24 19 33 84 92
108 97 44 8 87 7 115 -4z m-547 -944 c6 -8 9 -23 5 -35 -6 -19 -13 -21 -97
-18 -72 2 -93 6 -101 20 -8 12 -7 21 2 32 18 22 173 23 191 1z m1160 -6 c21
-39 -3 -50 -104 -47 -78 3 -91 5 -94 21 -8 41 3 47 97 47 81 0 91 -2 101 -21z
m-1082 -173 c49 -26 114 -101 110 -127 -6 -43 -47 -36 -98 16 -41 42 -48 45
-96 45 -28 0 -66 3 -83 6 -27 6 -32 11 -29 33 3 25 6 26 83 32 44 3 81 6 83 7
2 1 15 -4 30 -12z m1010 -8 c16 -16 15 -23 -4 -42 -11 -12 -35 -16 -88 -16
l-72 0 -44 -45 c-34 -34 -51 -45 -70 -43 -45 5 -37 40 24 102 l56 56 93 0 c59
0 97 -4 105 -12z m-377 -214 c9 -11 10 -20 2 -32 -9 -15 -37 -17 -214 -20
-222 -3 -248 3 -235 46 7 22 10 22 220 22 183 0 215 -2 227 -16z"/>
<path d="M2522 3460 c-13 -6 -30 -26 -38 -46 -41 -98 77 -175 148 -96 38 43
37 84 -1 123 -31 30 -65 36 -109 19z"/>
<path d="M2342 3087 l-132 -132 0 -58 c0 -34 5 -63 13 -70 6 -7 67 -65 134
-130 l121 -119 26 17 26 17 0 298 0 298 -22 6 c-13 3 -25 6 -28 6 -3 0 -65
-60 -138 -133z"/>
<path d="M2618 3213 c-17 -4 -18 -27 -18 -307 l0 -302 29 -11 c28 -10 32 -7
159 121 l130 131 0 55 0 55 -131 133 c-73 72 -136 131 -142 131 -5 -1 -18 -3
-27 -6z"/>
<path d="M1353 1744 c-14 -6 -17 -42 -7 -68 5 -12 21 -16 65 -16 l59 0 0 -150
0 -150 40 0 40 0 0 150 0 149 58 3 57 3 0 40 0 40 -150 2 c-82 1 -156 0 -162
-3z"/>
<path d="M1735 1741 c-3 -2 -5 -89 -5 -193 l0 -188 135 0 135 0 0 40 0 39 -97
3 -98 3 0 30 0 30 83 3 83 3 -3 37 -3 37 -82 3 -83 3 0 34 0 34 98 3 97 3 3
38 c2 25 -1 37 -10 38 -36 4 -249 4 -253 0z"/>
<path d="M2153 1729 c-76 -37 -121 -135 -101 -221 29 -129 177 -188 288 -114
35 23 39 30 29 42 -24 29 -44 33 -88 18 -81 -28 -151 19 -151 101 0 82 77 133
153 101 35 -14 40 -14 67 3 l30 18 -28 26 c-54 51 -128 61 -199 26z"/>
<path d="M2447 1742 c-16 -3 -17 -20 -15 -190 l3 -187 37 -3 37 -3 3 73 3 73
78 3 78 3 -3 37 -3 37 -65 2 c-36 1 -71 2 -77 2 -8 1 -13 15 -13 36 l0 35 96
0 95 0 -3 43 -3 42 -115 0 c-64 0 -124 -1 -133 -3z"/>
<path d="M2780 1743 c-25 -4 -25 -6 -24 -86 1 -45 2 -131 3 -190 l1 -108 138
3 137 3 0 35 0 35 -100 5 -100 5 -5 149 c-3 88 -9 150 -15 151 -5 1 -21 0 -35
-2z"/>
<path d="M3085 1742 c-3 -3 -5 -64 -5 -135 0 -112 3 -134 21 -166 31 -55 65
-75 134 -79 74 -5 119 21 153 88 19 39 22 60 22 167 l0 123 -40 0 -40 0 0
-115 c0 -127 -12 -168 -52 -179 -43 -11 -69 -6 -93 19 -24 23 -25 30 -25 150
0 93 -3 125 -12 126 -7 1 -23 3 -35 4 -12 1 -25 0 -28 -3z"/>
<path d="M3440 1744 c0 -3 34 -47 75 -96 66 -79 74 -93 62 -107 -30 -37 -122
-147 -136 -163 -13 -17 -11 -18 37 -18 50 0 51 1 98 60 26 33 52 60 58 60 6 0
33 -27 59 -60 47 -59 48 -60 99 -60 58 0 61 -9 -31 100 -31 36 -61 72 -68 80
-10 13 -1 30 62 105 41 49 72 91 70 94 -3 2 -23 6 -44 8 -39 4 -42 2 -87 -57
-26 -33 -51 -60 -55 -60 -4 0 -27 24 -51 54 -24 30 -52 57 -63 60 -26 8 -85 8
-85 0z"/>
</g>
</svg>
